<svg width="24" height="24" viewBox="0 0 24 24" fill="none" xmlns="http://www.w3.org/2000/svg">
<path d="M9.63046 7.4379C9.78813 7.12022 9.74519 6.73245 9.48386 6.49267C7.90535 5.04429 5.54461 4.13947 1.8897 4.01486C1.39906 3.99813 1 4.39802 1 4.88894C1 5.37986 1.39935 5.77563 1.88992 5.79397C5.15114 5.91585 6.94098 6.71444 8.04738 7.72964C8.17557 7.84726 8.29631 7.96916 8.41041 8.09518C8.68322 8.3965 9.20968 8.34156 9.37749 7.97134C9.4581 7.7935 9.54229 7.61556 9.63046 7.4379Z" fill="white"/>
<path d="M11.9916 16.1287C11.834 15.8737 11.82 15.5585 11.9265 15.2782C12.0683 14.9054 12.1982 14.536 12.3198 14.1742C12.4074 13.914 12.9621 13.9289 13.0719 14.1805C13.3323 14.7771 13.7795 15.5307 14.5456 16.2997C15.5324 17.2904 17.1272 18.0749 20.1105 18.2037C20.601 18.2249 21 18.6202 21 19.1112C21 19.6021 20.6008 20.0023 20.1103 19.9832C16.6904 19.8503 14.5015 18.9372 13.0482 17.4782C12.6315 17.0599 12.2855 16.6047 11.9916 16.1287Z" fill="white"/>
<path fill-rule="evenodd" clip-rule="evenodd" d="M13.9526 7.72964C15.059 6.71444 16.8489 5.91585 20.1101 5.79397C20.6007 5.77563 21 5.37986 21 4.88894C21 4.39802 20.6009 3.99813 20.1103 4.01486C16.4554 4.13947 14.0946 5.04429 12.5161 6.49267C10.8611 8.01129 10.2156 10.0109 9.66235 11.7594L9.63897 11.8333C9.06919 13.6345 8.58524 15.1644 7.45443 16.2997C6.46761 17.2904 4.87282 18.0749 1.88946 18.2037C1.399 18.2249 1 18.6202 1 19.1112C1 19.6021 1.39916 20.0023 1.88971 19.9832C5.30957 19.8503 7.49852 18.9372 8.95182 17.4782C10.3934 16.031 10.9882 14.1432 11.5133 12.4765C11.5382 12.3974 11.563 12.3188 11.5877 12.2407C12.1594 10.4337 12.7014 8.87769 13.9526 7.72964Z" fill="white"/>
<path fill-rule="evenodd" clip-rule="evenodd" d="M19.8787 5.70715C20.2692 5.31663 20.2692 4.68346 19.8787 4.29294L19 3.41426C18.6095 3.02374 18.6095 2.39057 19 2.00005C19.3905 1.60952 20.0237 1.60952 20.4142 2.00005L22.7071 4.29294C23.0976 4.68346 23.0976 5.31663 22.7071 5.70715L20.4142 8.00005C20.0237 8.39057 19.3905 8.39057 19 8.00005C18.6095 7.60952 18.6095 6.97636 19 6.58583L19.8787 5.70715Z" fill="white"/>
<path fill-rule="evenodd" clip-rule="evenodd" d="M19.8787 19.7072C20.2692 19.3166 20.2692 18.6835 19.8787 18.2929L19 17.4143C18.6095 17.0237 18.6095 16.3906 19 16C19.3905 15.6095 20.0237 15.6095 20.4142 16L22.7071 18.2929C23.0976 18.6835 23.0976 19.3166 22.7071 19.7072L20.4142 22C20.0237 22.3906 19.3905 22.3906 19 22C18.6095 21.6095 18.6095 20.9764 19 20.5858L19.8787 19.7072Z" fill="white"/>
</svg>
